<?xml version="1.0" encoding="UTF-8" standalone="no"?>
<!-- Created with Inkscape (http://www.inkscape.org/) -->

<svg
   width="169.49236mm"
   height="114.02628mm"
   viewBox="0 0 169.49236 114.02628"
   version="1.1"
   id="svg1"
   xml:space="preserve"
   inkscape:export-filename="ecIcon.svg"
   inkscape:export-xdpi="96"
   inkscape:export-ydpi="96"
   sodipodi:docname="eclogoIcon.svg"
   xmlns:inkscape="http://www.inkscape.org/namespaces/inkscape"
   xmlns:sodipodi="http://sodipodi.sourceforge.net/DTD/sodipodi-0.dtd"
   xmlns="http://www.w3.org/2000/svg"
   xmlns:svg="http://www.w3.org/2000/svg"><sodipodi:namedview
     id="namedview1"
     pagecolor="#ffffff"
     bordercolor="#111111"
     borderopacity="1"
     inkscape:showpageshadow="0"
     inkscape:pageopacity="0"
     inkscape:pagecheckerboard="1"
     inkscape:deskcolor="#d1d1d1"
     inkscape:document-units="mm"><inkscape:page
       x="-1.8576824e-22"
       y="-1.0635786e-23"
       width="169.49236"
       height="114.02628"
       id="page2"
       margin="0"
       bleed="0" /></sodipodi:namedview><defs
     id="defs1" /><g
     inkscape:label="Layer 1"
     inkscape:groupmode="layer"
     id="layer1"
     transform="translate(-20.038003,-91.405143)"><g
       id="g5"
       transform="matrix(0.38482666,0,0,0.36773404,63.25199,7.0344844)"
       style="fill:#00470a"><path
         fill="#00470a"
         opacity="1"
         stroke="none"
         d="m 216.02229,229.43403 c 12.05065,4.64967 15.27801,17.09648 15.93583,30.95647 1.04463,22.0105 -2.90912,42.59684 -10.50999,62.01838 -4.30437,10.99847 -9.21204,21.67683 -16.33882,30.1977 -3.06655,3.66642 -6.45216,7.13154 -10.95438,5.91813 -1.87498,-0.50535 -4.12305,-2.11751 -5.10586,-4.12398 -3.57404,-7.29676 -2.40569,-20.91621 3.53953,-28.74872 8.82821,-11.63076 13.73116,-26.1802 16.93096,-41.67102 0.45658,-2.21046 -0.56967,-5.94445 -1.92294,-7.45595 -1.12658,-1.25827 -3.9712,-1.03991 -5.65755,-0.17697 -7.95512,4.07077 -13.83144,11.96629 -19.04558,20.17469 -6.32504,9.95732 -12.22903,20.56626 -17.17063,31.73993 -6.90375,15.61035 -13.32791,31.67782 -18.87521,48.15884 -5.00363,14.86587 -9.00908,30.37494 -12.59333,45.9323 -2.74681,11.92215 -4.82792,24.36703 -1.52903,36.85071 2.47016,9.34755 6.72549,16.88207 14.97972,17.62665 3.53156,0.31855 7.6107,-0.6995 10.70095,-2.87141 6.20081,-4.3581 12.53035,-9.03066 17.68033,-15.15714 18.5222,-22.03421 32.74722,-48.60178 46.17903,-75.90868 2.25343,-4.58123 4.48731,-9.20333 7.02334,-13.51843 1.65816,-2.82137 3.68411,-5.61779 6.97777,-4.55279 3.86011,1.24821 5.98451,5.06779 6.59291,9.594 0.5293,3.93778 0.45417,8.40786 -0.45277,12.20357 -3.94547,16.51296 -10.94674,31.11303 -18.60683,45.03026 -8.47608,15.39973 -17.53936,30.27468 -26.62553,45.09248 -8.92217,14.55031 -19.7955,26.36569 -32.4235,35.19261 -11.87071,8.29752 -24.51545,10.76795 -37.36834,4.46044 -7.56713,-3.71357 -12.93048,-11.28767 -16.82278,-20.48673 -5.66113,-13.3794 -7.96624,-27.72095 -7.46019,-42.89737 0.0945,-2.83289 0.0136,-5.67554 0.0136,-9.4202 -3.552903,4.87489 -6.620776,9.24277 -9.821476,13.44124 -5.743612,7.53408 -11.185253,15.56221 -17.457565,22.28446 -7.211535,7.72879 -14.978903,14.6874 -22.88419,21.21178 -10.009154,8.26073 -20.744482,13.88177 -32.906401,15.37484 -13.1454882,1.61379 -24.0946852,-3.10979 -33.103821,-15.15226 -6.612672,-8.83913 -10.577733,-19.82127 -11.751889,-31.92545 -1.10584,-11.39991 -1.898489,-23.0298 -1.433468,-34.46361 0.708381,-17.41752 3.071409,-34.5784 7.032649,-51.42175 6.459246,-27.46487 16.0850326,-52.83676 28.8937957,-76.14277 6.5702723,-11.95486 13.8059603,-23.30974 20.9172163,-34.75253 7.68369,-12.36389 16.642684,-23.05224 26.866261,-31.81169 5.705777,-4.88862 11.78657,-9.00802 18.888099,-10.4472 3.337565,-0.35283 6.562691,-0.35283 10.224679,-0.0189 6.338642,2.27931 10.338394,7.17819 13.171125,13.94683 5.501615,13.14578 3.873205,26.89307 1.380955,40.3071 -3.08769,16.61872 -8.426683,32.1807 -14.762238,47.25452 -8.606303,20.47653 -19.057354,38.90522 -32.197054,54.96592 -12.542568,15.33086 -26.491556,27.80833 -42.428961,36.08838 -6.2508615,3.24751 -8.7265096,7.10926 -7.9741526,15.93472 0.9190422,10.78091 3.9594283,19.58346 10.8478596,25.72735 8.364031,7.45998 17.445178,6.83973 26.644464,3.01285 9.549892,-3.9727 17.733847,-10.86227 25.296978,-19.30556 10.6736,-11.91577 20.20445,-25.14467 28.570505,-39.79402 5.516559,-9.6597 10.931669,-19.41654 16.467909,-29.05715 2.23861,-3.89828 5.22005,-7.23624 6.93125,-11.46076 6.57104,-16.22218 12.40188,-32.95633 19.18762,-49.01992 9.0066,-21.32093 20.36721,-40.58947 33.21058,-58.2902 9.37603,-12.92204 19.67378,-24.43921 32.86087,-30.64411 3.96388,0 7.92779,0 12.23781,0 M 35.380343,321.30468 C 24.546112,341.91284 16.972997,364.5211 10.91453,388.3854 c 5.213233,-2.94115 10.162706,-6.23891 14.984431,-9.82396 12.026612,-8.94195 21.121246,-22.01566 29.304476,-36.1065 7.954623,-13.69722 14.950574,-28.22204 19.159126,-44.6628 0.599781,-2.34305 1.071664,-4.7814 1.323832,-7.22382 0.439883,-4.26051 0.217406,-9.20352 -3.109294,-10.64427 -2.287288,-0.9906 -5.834577,0.26422 -8.056302,2.07765 -12.023185,9.81359 -21.009538,23.5765 -29.140456,39.30298 z"
         id="path2"
         style="fill:#00470a;stroke-width:0.841807" /><path
         fill="#00470a"
         opacity="1"
         stroke="none"
         d="m 328.14348,376.4425 c -4.35786,6.55231 -8.7865,12.60475 -13.05363,18.84211 -4.26371,6.23237 -8.32883,12.69127 -12.54649,18.97735 -8.37722,12.48557 -16.78811,24.93342 -25.20712,37.37196 -5.45835,8.06441 -10.93523,16.10821 -16.44093,24.11859 -6.32383,9.2008 -12.70052,18.34077 -19.01718,27.54967 -0.6286,0.91646 -1.00005,2.12782 -1.49086,3.20234 -0.35502,-0.30754 -0.71004,-0.61508 -1.06505,-0.92261 0,-7.89536 -0.49323,-15.86828 0.23861,-23.64848 0.29989,-3.18827 3.13685,-6.08084 5.00609,-8.90126 9.26843,-13.98481 18.57517,-27.92755 27.91692,-41.83059 5.59345,-8.32456 11.30151,-16.52022 16.9089,-24.82928 3.27902,-4.85891 6.46138,-9.82693 9.67006,-14.71968 -7.66132,-12.20576 -15.30998,-24.55842 -23.10189,-36.75798 -7.73765,-12.11463 -15.62411,-24.07027 -23.43612,-36.1056 -3.82209,-5.8883 -7.76641,-11.65915 -11.34998,-17.78212 -1.1297,-1.93022 -1.764,-4.82569 -1.78087,-7.28908 -0.13876,-20.24785 -0.0783,-40.49799 -0.0783,-61.92862 3.48745,5.27678 6.54128,9.77311 9.48831,14.3836 5.39921,8.4468 10.73777,16.95848 16.09719,25.44779 6.28877,9.96144 12.54902,19.95321 18.86638,29.88418 5.16949,8.12647 10.42516,16.16109 15.60552,24.27603 6.71029,10.5116 13.37301,21.07406 20.07838,31.59096 2.7026,4.23883 5.46397,8.41503 8.44536,12.704 0.24671,2.03883 0.24671,3.99336 0.24671,6.36672 z"
         id="path4"
         style="fill:#00470a;stroke-width:0.841807" /><path
         fill="#00470a"
         opacity="1"
         stroke="none"
         d="m -112.29467,392.60366 c 4.11413,-6.56588 8.32378,-12.60469 12.320276,-18.87091 6.164773,-9.66583 12.202972,-19.46734 18.259087,-29.24835 6.66041,-10.75698 13.234854,-21.60338 19.930594,-32.32324 6.783343,-10.86013 13.675942,-21.60603 20.507548,-32.41584 4.038634,-6.39044 8.051788,-12.80781 12.622953,-20.08291 0,9.14057 0.51791,17.40157 -0.238844,25.46241 -0.331995,3.53646 -3.112285,6.82087 -5.041004,9.9517 -9.127688,14.8167 -18.378915,29.50602 -27.520555,44.30844 -7.855906,12.72051 -15.623231,25.53254 -23.527492,38.46403 14.827341,25.03875 29.649205,50.08473 44.48795,75.114 3.456,5.82942 7.092235,11.48899 10.379969,17.47084 0.960208,1.74709 1.393947,4.33447 1.404976,6.54226 0.102846,20.57678 0.06085,41.15472 0.06076,62.18099 7e-6,0.44865 -0.370109,0.44865 -0.619612,0.13089 -6.618513,-10.92689 -13.042379,-21.48189 -19.342109,-32.15939 -7.248455,-12.28553 -14.342399,-24.72349 -21.584278,-37.0156 -10.03413,-17.0316 -20.119058,-34.01345 -30.233289,-50.96568 -3.8834,-6.50886 -7.90716,-12.87769 -11.86694,-19.31032 0,-2.26939 0,-4.53875 0,-7.23335 z"
         id="path5"
         style="fill:#00470a;stroke-width:0.841807" /></g></g></svg>
