<?xml version="1.0" encoding="UTF-8" standalone="no"?>
<!-- Created with Inkscape (http://www.inkscape.org/) -->

<svg
   width="97.03334mm"
   height="98.869423mm"
   viewBox="0 0 97.03334 98.869423"
   version="1.1"
   id="svg1"
   xml:space="preserve"
   xmlns="http://www.w3.org/2000/svg"
   xmlns:svg="http://www.w3.org/2000/svg"><defs
     id="defs1"><linearGradient
       id="swatch3"><stop
         style="stop-color:#26da8a;stop-opacity:1;"
         offset="0"
         id="stop3" /></linearGradient></defs><g
     id="layer1"
     transform="translate(-19.778119,-47.883386)"><path
       id="path2"
       style="fill:#1a1a1a;fill-opacity:1;fill-rule:evenodd;stroke-width:0.127134"
       d="M 68.294539,47.883382 A 48.516788,49.434616 0 0 0 19.778121,97.318091 48.516788,49.434616 0 0 0 68.294539,146.7528 48.516788,49.434616 0 0 0 116.81147,97.318091 48.516788,49.434616 0 0 0 68.294539,47.883382 Z M 85.870211,66.5887 h 2.24379 c 2.209416,0.921581 2.801179,3.388962 2.921786,6.13606 0.191527,4.362556 -0.533439,8.442857 -1.927014,12.292273 -0.789181,2.179934 -1.689029,4.296298 -2.995683,5.985164 -0.562234,0.726697 -1.183208,1.413557 -2.008663,1.173055 -0.343767,-0.100162 -0.755667,-0.419832 -0.93586,-0.817521 -0.655279,-1.446243 -0.440965,-4.14593 0.649056,-5.69836 1.618601,-2.305256 2.517538,-5.188593 3.104203,-8.258927 0.08371,-0.43812 -0.104836,-1.178362 -0.35295,-1.477946 -0.206552,-0.249394 -0.727963,-0.206174 -1.037146,-0.03514 -1.458525,0.80684 -2.535793,2.371789 -3.491776,3.998722 -1.159659,1.973575 -2.242116,4.076429 -3.148129,6.291089 -1.265762,3.094025 -2.443705,6.278559 -3.46077,9.545154 -0.917387,2.946466 -1.651752,6.020317 -2.308903,9.103837 -0.503611,2.36301 -0.884919,4.82964 -0.280087,7.30395 0.45289,1.85272 1.232721,3.34626 2.746086,3.49384 0.64749,0.0631 1.395575,-0.13899 1.962154,-0.56947 1.136882,-0.86379 2.297444,-1.78967 3.241663,-3.00396 3.395937,-4.36725 6.004022,-9.63327 8.466666,-15.045588 0.413153,-0.908015 0.822811,-1.824155 1.287777,-2.679423 0.304014,-0.559205 0.675118,-1.113358 1.278992,-0.902271 0.707728,0.247399 1.097166,1.004583 1.208712,1.901693 0.09704,0.780482 0.0836,1.666651 -0.08268,2.418974 -0.723379,3.272925 -2.007245,6.166595 -3.411678,8.925035 -1.55404,3.05228 -3.21546,6.0005 -4.881356,8.93744 -1.635828,2.88392 -3.629586,5.22576 -5.944856,6.97529 -2.176425,1.6446 -4.494759,2.13435 -6.851262,0.88418 -1.387389,-0.73604 -2.370936,-2.23745 -3.084566,-4.06074 -1.037935,-2.65184 -1.460656,-5.4943 -1.367875,-8.50232 0.01733,-0.56149 0.0026,-1.12486 0.0026,-1.86707 -0.651404,0.96622 -1.213577,1.83177 -1.800407,2.66392 -1.053057,1.49328 -2.050847,3.08441 -3.200838,4.41679 -1.322193,1.53187 -2.746221,2.91123 -4.19561,4.20439 -1.835119,1.6373 -3.803406,2.75143 -6.033223,3.04736 -2.410148,0.31986 -4.417624,-0.61657 -6.069397,-3.00343 -1.212394,-1.75194 -1.939633,-3.92818 -2.154908,-6.32727 -0.202749,-2.2595 -0.347775,-4.56488 -0.262516,-6.8311 0.129878,-3.45221 0.563057,-6.85373 1.289327,-10.192147 1.184265,-5.443631 2.948939,-10.472254 5.297351,-15.091585 1.204621,-2.369494 2.531618,-4.619952 3.835425,-6.887952 1.40876,-2.450565 3.050848,-4.568888 4.925281,-6.305041 1.046121,-0.968941 2.16133,-1.785425 3.463354,-2.070675 0.611923,-0.06993 1.2029,-0.07036 1.874304,-0.0041 1.162153,0.451768 1.895475,1.423121 2.41484,2.764689 1.008689,2.605538 0.710155,5.329953 0.253215,7.98866 -0.56611,3.293887 -1.544708,6.378671 -2.706295,9.366353 -1.577915,4.058519 -3.493912,7.71114 -5.902999,10.894426 -2.299607,3.038622 -4.85734,5.511402 -7.77937,7.152532 -1.146059,0.64367 -1.599867,1.40922 -1.461926,3.15846 0.168501,2.13681 0.726072,3.88169 1.989025,5.09943 1.533496,1.47859 3.198338,1.35537 4.884974,0.59687 1.750917,-0.7874 3.251303,-2.15265 4.637959,-3.82613 1.956942,-2.36175 3.704572,-4.98381 5.23844,-7.88737 1.011428,-1.91458 2.003901,-3.848534 3.018938,-5.759336 0.410436,-0.772653 0.957501,-1.434382 1.27124,-2.271696 1.204761,-3.215292 2.27349,-6.531828 3.517615,-9.715686 1.651308,-4.225881 3.734277,-8.044955 6.089034,-11.5533 1.71904,-2.561192 3.607179,-4.844216 6.024955,-6.074048 z m 6.771679,0.308509 c 0.647646,1.054733 1.214882,1.953722 1.762167,2.875276 1.002675,1.688363 1.994196,3.389653 2.989481,5.086512 1.167872,1.991112 2.329964,3.988257 3.503142,5.973278 0.96001,1.624335 1.9365,3.230387 2.89853,4.852417 1.24616,2.101079 2.48322,4.212205 3.72846,6.314344 0.50189,0.847265 1.01471,1.682092 1.56838,2.53938 0.0458,0.407525 0.046,0.797881 0.046,1.272273 -0.80929,1.309689 -1.6317,2.519443 -2.42414,3.766179 -0.7918,1.245732 -1.54684,2.537082 -2.33009,3.793562 -1.55572,2.49564 -3.11789,4.98359 -4.681369,7.46983 -1.013657,1.61193 -2.030593,3.21977 -3.053043,4.8209 -1.174384,1.83907 -2.358516,3.66594 -3.531568,5.50664 -0.116736,0.18318 -0.185838,0.42549 -0.276985,0.64027 -0.06593,-0.0615 -0.131993,-0.12302 -0.197921,-0.18449 0,-1.57814 -0.09147,-3.17172 0.04444,-4.72684 0.05569,-0.63728 0.582527,-1.21547 0.929659,-1.77922 1.721218,-2.79531 3.449862,-5.58228 5.184696,-8.36125 1.038746,-1.66393 2.098521,-3.30216 3.139861,-4.963 0.60894,-0.9712 1.19988,-1.964483 1.79576,-2.942456 -1.42277,-2.43971 -2.84316,-4.908367 -4.290182,-7.346839 C 98.01022,89.082479 96.54572,86.69249 95.094971,84.286845 94.38518,83.10988 93.652585,81.956411 92.987089,80.73254 92.777295,80.346724 92.659493,79.768168 92.65636,79.275781 92.63059,75.228601 92.64189,71.180805 92.64189,66.897209 Z m -49.772155,5.552116 c 0,1.827034 0.09609,3.478394 -0.04444,5.089611 -0.06165,0.706876 -0.577683,1.363229 -0.93586,1.989026 -1.695081,2.961589 -3.413128,5.897571 -5.110799,8.856307 -1.458902,2.542601 -2.901362,5.103651 -4.369243,7.68842 2.75355,5.004801 5.505844,10.011171 8.261512,15.014071 0.641805,1.1652 1.316973,2.29611 1.92753,3.49178 0.178318,0.3492 0.258918,0.86663 0.260966,1.30793 0.0191,4.11292 0.01139,8.22593 0.01137,12.4287 1e-6,0.0897 -0.0689,0.0899 -0.115238,0.0264 -1.229108,-2.18409 -2.421605,-4.29379 -3.591512,-6.42803 -1.346093,-2.45566 -2.663669,-4.94206 -4.008541,-7.39903 -1.863414,-3.40431 -3.736355,-6.79853 -5.614644,-10.18698 -0.721177,-1.301 -1.468639,-2.57394 -2.204,-3.85971 v -1.445907 c 0.764025,-1.312404 1.546053,-2.519359 2.288232,-3.771863 1.144845,-1.932025 2.266341,-3.891107 3.391008,-5.846155 1.236888,-2.150128 2.457616,-4.318401 3.701066,-6.461104 1.259718,-2.170745 2.539872,-4.318504 3.808553,-6.479191 0.750005,-1.277334 1.495142,-2.560067 2.344043,-4.014225 z m 18.593697,4.077787 c -0.37893,0.004 -0.821041,0.211537 -1.126546,0.481107 -2.204381,1.945087 -3.852071,4.672664 -5.342827,7.789706 -1.986393,4.084608 -3.374729,8.565843 -4.485514,13.295829 0.955816,-0.582946 1.863084,-1.236599 2.747119,-1.947168 2.205009,-1.772325 3.872452,-4.363816 5.372799,-7.156669 1.458434,-2.714836 2.741351,-5.593559 3.512964,-8.852173 0.109966,-0.464401 0.196645,-0.947858 0.242879,-1.431954 0.08065,-0.844448 0.03942,-1.82387 -0.570508,-2.109432 -0.10484,-0.04908 -0.224056,-0.07057 -0.350366,-0.06925 z" /></g></svg>
