<svg version="1.1" id="Layer_1" xmlns="http://www.w3.org/2000/svg" xmlns:xlink="http://www.w3.org/1999/xlink" x="0px" y="0px"
                            width="18px" height="18px" viewBox="0 0 800 800" enable-background="new 0 0 800 800" xml:space="preserve">
                        <path fill="#26DA8A" opacity="1.000000" stroke="none" 
                            d="
                        M0.999997,754.000000 
                            C1.000000,518.971985 1.000000,283.943939 1.362094,48.361610 
                            C2.150220,46.965805 2.675365,46.159378 2.987471,45.277546 
                            C7.963304,31.218737 15.281245,18.694664 28.594484,11.153180 
                            C35.952431,6.985163 44.169960,4.334608 52.000000,1.000000 
                            C284.361359,1.000000 516.722717,1.000000 749.674072,1.382022 
                            C751.415833,1.846878 752.632263,1.716873 753.709778,2.044125 
                            C773.119019,7.938938 788.258118,18.867260 796.016541,38.331364 
                            C797.811462,42.834267 799.345825,47.441010 801.000000,51.999996 
                            C801.000000,284.361359 801.000000,516.722717 800.617981,749.674072 
                            C800.153137,751.415894 800.283875,752.632690 799.955750,753.709778 
                            C794.046997,773.106934 783.030640,788.173584 763.667236,796.013062 
                            C759.174866,797.831909 754.559021,799.345764 750.000000,801.000000 
                            C517.638611,801.000000 285.277283,801.000000 52.325974,800.618042 
                            C50.132378,799.976624 48.469021,799.908264 46.934132,799.428772 
                            C28.163605,793.564087 13.847451,782.542114 5.970308,764.025391 
                            C4.512668,760.598877 2.666734,757.337585 0.999997,754.000000 
                        M48.000000,450.500000 
                            C48.000000,544.992126 48.049759,639.484253 47.942558,733.976257 
                            C47.927689,747.085876 54.913155,754.048584 67.782356,754.044983 
                            C289.930298,753.982483 512.078247,754.000122 734.226196,753.999878 
                            C747.445496,753.999878 753.999695,747.526428 753.999695,734.467651 
                            C754.000061,512.153076 753.987732,289.838440 754.032410,67.523849 
                            C754.034912,55.009022 747.201233,47.952259 734.217773,47.955853 
                            C512.069824,48.017330 289.921875,48.017345 67.773933,47.955421 
                            C54.914379,47.951839 47.933308,54.913666 47.943085,68.032196 
                            C48.037849,195.188065 48.000000,322.344055 48.000000,450.500000 
                        z"/>
                        <path fill="#26DA8A" opacity="1.000000" stroke="none" 
                            d="
                        M302.234314,575.305664 
                            C290.907928,580.900696 279.293304,584.151062 267.015778,584.374939 
                            C255.314728,584.588257 244.548599,581.597717 235.365677,573.884094 
                            C218.767899,559.942017 210.020142,541.933655 208.057159,520.595703 
                            C206.733505,506.207184 205.090515,491.754120 205.255859,477.349030 
                            C205.420517,463.002350 207.554367,448.668274 209.021011,434.348755 
                            C211.447769,410.655426 217.590576,387.749237 225.135178,365.297241 
                            C235.856247,333.392426 249.988022,303.011047 268.616791,274.845703 
                            C278.834473,259.397247 288.069092,243.188980 299.426392,228.633759 
                            C311.507202,213.151306 325.165314,198.734634 343.071045,189.455109 
                            C351.276123,185.202881 360.308960,183.685883 369.202606,185.236160 
                            C377.103973,186.613449 382.859985,192.213974 386.728058,199.334961 
                            C394.456390,213.562500 396.117249,228.610916 394.173523,244.637543 
                            C391.866760,263.657745 387.388672,282.039795 380.998596,300.006073 
                            C369.297913,332.903809 354.368408,364.168152 332.624969,391.730072 
                            C324.310699,402.269196 315.692810,412.712555 306.111633,422.071838 
                            C294.286530,433.623077 281.324280,443.996277 266.263397,451.355499 
                            C262.809509,453.043213 259.464874,455.043701 256.319305,457.254913 
                            C249.361923,462.145630 249.071274,469.671204 250.193283,476.833008 
                            C251.323761,484.048859 253.030136,491.494598 256.189606,498.013031 
                            C266.084686,518.428162 284.004150,523.637024 304.548187,514.832092 
                            C322.333710,507.209442 335.941589,494.398712 347.759460,479.610077 
                            C357.868744,466.959473 367.888611,454.158051 376.857086,440.696533 
                            C386.652161,425.994171 395.181549,410.449341 404.291748,395.289185 
                            C405.784973,392.804291 407.287598,390.303772 409.026093,387.991028 
                            C417.767426,376.362244 421.272980,362.321655 427.042114,349.319550 
                            C437.581818,325.565613 447.558380,301.517059 459.209900,278.314484 
                            C469.720673,257.383545 483.584961,238.422272 498.246033,220.069580 
                            C507.631989,208.320221 518.084656,197.947891 530.712463,189.834732 
                            C541.281128,183.044510 552.862671,182.543488 563.806885,187.631897 
                            C573.523560,192.149582 578.427124,201.767914 579.749023,211.930603 
                            C581.443298,224.955261 582.548340,238.290298 581.735962,251.356613 
                            C580.236816,275.469238 574.032593,298.613708 564.147522,320.819214 
                            C558.348022,333.846893 551.629822,346.163269 542.958801,357.480286 
                            C538.457214,363.355560 530.514771,366.926239 524.951111,364.988525 
                            C519.488892,363.086121 516.985229,358.298065 516.385193,353.494720 
                            C514.890198,341.527893 515.785889,329.773499 523.111450,319.313446 
                            C527.443420,313.127930 532.261169,307.001556 535.114868,300.124268 
                            C540.008301,288.331055 543.855591,276.063751 547.421021,263.786072 
                            C548.379639,260.485168 547.235962,256.253082 546.033081,252.805862 
                            C545.564087,251.461914 541.489258,249.832535 540.393188,250.506500 
                            C534.186279,254.322906 527.273743,257.843964 522.649841,263.225586 
                            C507.765442,280.548920 496.258942,300.274139 486.757599,320.946991 
                            C477.465698,341.164032 468.573090,361.670227 461.248474,382.657898 
                            C452.908722,406.554108 445.976074,430.985321 439.491455,455.464691 
                            C436.643097,466.217133 435.240692,477.672821 435.322479,488.793488 
                            C435.408569,500.504395 437.825073,512.302612 446.179260,521.645508 
                            C454.814453,531.302673 464.685760,531.236816 474.064056,524.762146 
                            C483.976593,517.918701 493.874481,510.362366 501.662811,501.299133 
                            C512.788574,488.352295 522.575745,474.129639 531.849976,459.752258 
                            C541.335388,445.047516 549.610474,429.554169 558.230469,414.301544 
                            C564.956238,402.400635 571.442139,390.363037 577.941162,378.335663 
                            C579.933960,374.647858 583.061340,371.825317 586.896118,373.256470 
                            C590.350220,374.545593 594.262756,377.412231 595.753174,380.615845 
                            C599.754517,389.216949 598.563416,398.396332 596.218506,407.384003 
                            C589.235779,434.148010 575.903015,457.912628 561.394287,481.116577 
                            C549.962646,499.399292 538.844177,517.892578 526.907532,535.840759 
                            C513.978516,555.281067 497.493835,571.468079 477.034485,582.838379 
                            C459.262024,592.715393 440.690674,592.756226 423.395874,581.533936 
                            C414.047699,575.468140 408.194489,565.847107 404.011414,555.472900 
                            C397.910675,540.342957 393.752716,524.825439 393.917816,508.301544 
                            C393.990570,501.018951 393.183105,493.727570 392.773865,486.415558 
                            C390.540131,489.064301 387.813721,492.174408 385.221893,495.392853 
                            C375.936523,506.923462 367.073151,518.819214 357.348175,529.964355 
                            C343.986969,545.276733 328.371948,558.181091 311.683502,569.751831 
                            C308.794830,571.754700 305.582886,573.291199 302.234314,575.305664 
                        M291.033752,322.626587 
                            C278.371521,348.948090 268.381134,376.240967 261.098236,404.836823 
                            C262.563202,404.157135 263.868561,403.665009 265.063599,402.980255 
                            C285.479980,391.281006 302.031647,375.547668 315.061401,355.918304 
                            C328.085663,336.297180 339.565826,315.854004 347.485168,293.681305 
                            C350.756470,284.522278 352.668518,274.687927 353.757751,264.998718 
                            C354.650391,257.058350 348.123169,253.544861 341.123413,257.466583 
                            C338.048828,259.189148 335.277130,261.556488 332.633301,263.927063 
                            C314.526642,280.162323 302.748962,300.904663 291.033752,322.626587 
                        z"/>
                        <path fill="#26DA8A" opacity="1.000000" stroke="none" 
                            d="
                        M704.735474,356.237305 
                            C709.987976,363.829956 714.972290,371.162354 719.965271,378.488922 
                            C722.982300,382.916138 722.742737,388.580383 719.680481,392.877625 
                            C709.090210,407.739349 698.594116,422.668213 688.061035,437.570709 
                            C671.288940,461.300323 654.538025,485.044952 637.736023,508.753418 
                            C624.850281,526.935791 611.914001,545.082458 598.961365,563.217163 
                            C597.153259,565.748596 595.122986,568.121399 593.195618,570.567688 
                            C592.797913,570.311035 592.400208,570.054382 592.002502,569.797729 
                            C592.002502,558.485413 591.717712,547.161011 592.197937,535.869080 
                            C592.321716,532.959534 594.531433,529.930908 596.327820,527.333984 
                            C607.990723,510.473267 619.792847,493.708801 631.571045,476.928040 
                            C646.501648,455.655914 661.486938,434.421906 676.301758,413.069519 
                            C677.103760,411.913635 677.261963,409.354736 676.526245,408.229034 
                            C661.015442,384.496613 645.437500,360.806396 629.648926,337.257935 
                            C618.152161,320.110748 606.258301,303.229980 594.746643,286.092590 
                            C593.211853,283.807617 592.132507,280.715363 592.115662,277.989075 
                            C591.931091,248.183334 592.000000,218.376038 592.000000,186.996902 
                            C601.829956,201.667160 610.972900,215.163132 619.960754,228.761627 
                            C632.568237,247.836624 644.968384,267.049103 657.625610,286.090820 
                            C673.149902,309.445801 688.847961,332.685242 704.735474,356.237305 
                        z"/>
                        <path fill="#26DA8A" opacity="1.000000" stroke="none" 
                            d="
                        M178.254700,580.673828 
                            C155.649979,543.758667 133.336380,507.105255 110.849556,470.558472 
                            C101.745110,455.761383 92.288269,441.180542 82.940758,426.533875 
                            C78.802116,420.049042 78.810600,414.551331 82.961723,408.245514 
                            C98.009567,385.386780 112.993774,362.486176 128.039200,339.625854 
                            C146.813309,311.100067 165.633240,282.604401 184.413437,254.082626 
                            C189.639847,246.145218 194.789902,238.157578 199.991241,230.203613 
                            C200.664154,229.174576 201.435028,228.209625 202.002380,227.431808 
                            C202.002380,239.880707 203.107864,252.457672 201.544785,264.693756 
                            C200.740509,270.989624 195.449631,276.851349 191.726898,282.612549 
                            C170.668198,315.202576 149.465958,347.699860 128.337570,380.244965 
                            C127.555084,381.450256 127.154907,382.904694 126.366364,384.104919 
                            C121.174812,392.006989 121.393974,391.846588 126.594925,400.210388 
                            C140.854034,423.140930 154.845764,446.237518 169.037262,469.210358 
                            C178.591370,484.676331 188.269730,500.065948 197.967346,515.442505 
                            C201.140976,520.474670 203.068573,525.734741 203.044861,531.809021 
                            C202.940796,558.461792 203.000000,585.115295 203.000000,611.768494 
                            C203.000000,613.409912 203.000000,615.051331 203.000000,616.692810 
                            C202.550461,616.932312 202.100937,617.171875 201.651398,617.411438 
                            C193.926331,605.267151 186.201248,593.122803 178.254700,580.673828 
                        z"/>
                        </svg>
