<?xml version="1.0" encoding="UTF-8" standalone="no"?>
<!-- Created with Inkscape (http://www.inkscape.org/) -->

<svg
   width="97.03334mm"
   height="98.869423mm"
   viewBox="0 0 97.03334 98.869423"
   version="1.1"
   id="svg1"
   xml:space="preserve"
   xmlns="http://www.w3.org/2000/svg"
   xmlns:svg="http://www.w3.org/2000/svg"><defs
     id="defs1"><linearGradient
       id="swatch3"><stop
         style="stop-color:#26da8a;stop-opacity:1;"
         offset="0"
         id="stop3" /></linearGradient></defs><g
     id="layer1"
     transform="translate(-19.778119,-47.883386)"><path
       id="path2"
       style="fill:#1a1a1a;fill-opacity:1;fill-rule:evenodd;stroke-width:0.127134"
       d="M 68.294539,47.883382 A 48.516788,49.434616 0 0 0 19.778121,97.318091 48.516788,49.434616 0 0 0 68.294539,146.7528 48.516788,49.434616 0 0 0 116.81147,97.318091 48.516788,49.434616 0 0 0 68.294539,47.883382 Z M 48.099906,72.916996 c 0.751719,-0.0051 1.573635,0.0031 2.488221,0.0031 h 37.884509 c 3.65834,0 5.825905,-0.127573 8.003646,0.960665 1.695043,0.846999 3.083017,2.204378 3.955318,3.882967 v 0.0021 c 1.02147,1.96705 0.9914,4.056425 0.9803,7.095691 a 2.5,2.5 0 0 1 0.002,0.07028 c -0.001,0.276473 0.0119,0.442878 0.0119,0.737939 v 24.342182 c 0,3.58763 0.12943,5.74144 -0.99425,7.90391 -0.872231,1.67905 -2.259009,3.03577 -3.954801,3.88297 -2.177758,1.0883 -4.345823,0.96273 -8.004163,0.96273 H 50.588127 c -3.658374,0 -5.82646,0.1255 -8.004163,-0.96273 -1.695977,-0.84723 -3.083055,-2.20421 -3.955314,-3.88297 -1.123619,-2.16245 -0.993738,-4.31628 -0.993738,-7.90391 V 85.669706 c 0,-3.587659 -0.129796,-5.743589 0.993738,-7.905977 0.872285,-1.678948 2.259612,-3.035706 3.955314,-3.882967 1.633275,-0.816127 3.260788,-0.948542 5.515942,-0.963766 z m 2.488221,5.002796 c -3.658341,0 -5.150712,0.12531 -5.767607,0.433565 -0.762547,0.381007 -1.373704,0.985423 -1.753898,1.717208 -0.198566,0.382163 -0.223924,2.196579 -0.285254,3.701066 l 22.320085,14.591874 c 2.095312,1.369989 2.942973,1.852365 3.478857,1.978175 a 2.50025,2.50025 0 0 0 0,5.2e-4 2.50025,2.50025 0 0 0 0,5.1e-4 2.50025,2.50025 0 0 0 0,5.2e-4 2.50025,2.50025 0 0 0 0,5.2e-4 c 0.623712,0.14674 1.276432,0.14674 1.900142,0 a 2.50025,2.50025 0 0 1 0,-0.002 c 0.535855,-0.1258 1.383022,-0.608182 3.478341,-1.978175 L 96.279395,83.771631 c -0.06133,-1.50448 -0.08669,-3.318922 -0.285254,-3.701066 -0.379963,-0.731494 -0.991363,-1.336176 -1.753898,-1.717208 -0.616728,-0.308186 -2.109267,-0.433565 -5.767607,-0.433565 z m -7.95352,11.728483 v 20.363615 c 0,2.40135 0.160796,2.88748 0.289388,3.74809 L 55.990381,98.381075 Z m 53.791032,0 -13.355257,8.7328 13.066386,15.378905 c 0.128596,-0.86059 0.288871,-1.34674 0.288871,-3.74809 z M 60.208728,101.13853 46.35531,117.44141 c 0.861693,0.15803 1.548159,0.32039 4.232817,0.32039 h 37.884509 c 2.684633,0 3.37061,-0.16238 4.2323,-0.32039 l -13.853418,-16.30288 -2.156458,1.41025 c -2.094334,1.36935 -3.342071,2.25631 -5.069975,2.66237 -1.377748,0.32414 -2.81166,0.32414 -4.189408,0 -1.727874,-0.40607 -2.976153,-1.29302 -5.070491,-2.66237 z" /></g></svg>
