<?xml version="1.0" encoding="UTF-8" standalone="no"?>
<!-- Created with Inkscape (http://www.inkscape.org/) -->

<svg
   width="97.033348mm"
   height="98.869415mm"
   viewBox="0 0 97.033348 98.869415"
   version="1.1"
   id="svg1"
   xml:space="preserve"
   xmlns="http://www.w3.org/2000/svg"
   xmlns:svg="http://www.w3.org/2000/svg"><defs
     id="defs1"><linearGradient
       id="swatch3"><stop
         style="stop-color:#26da8a;stop-opacity:1;"
         offset="0"
         id="stop3" /></linearGradient></defs><g
     id="layer1"
     transform="translate(-19.777943,-47.883492)"><path
       id="path2"
       style="fill:#00470a;fill-opacity:1;fill-rule:evenodd;stroke-width:0.127134"
       d="M 68.294878,47.883492 A 48.516788,49.434616 0 0 0 19.777943,97.318201 48.516788,49.434616 0 0 0 68.294878,146.75291 48.516788,49.434616 0 0 0 116.8113,97.318201 48.516788,49.434616 0 0 0 68.294878,47.883492 Z M 52.340813,69.381405 c 2.480427,-0.02712 4.971445,1.163935 6.585128,3.426147 l 3.548621,4.975407 c 2.334282,3.272361 2.128461,7.845388 -0.642338,10.736812 l -0.668693,0.697632 c -0.02637,0.0749 -0.107573,0.349314 -0.02481,0.908989 0.177871,1.203628 1.135355,3.756522 5.155758,7.951969 4.019276,4.193939 6.469408,5.198239 7.632609,5.385199 0.544841,0.0879 0.81471,0.001 0.889868,-0.0274 l 1.146183,-1.19631 c 2.463464,-2.570293 6.248432,-3.050532 9.29814,-1.31051 l 5.376933,3.06751 c 4.604395,2.62671 5.767398,9.19512 1.995227,13.1315 l -3.998205,4.17184 c -1.259454,1.31439 -2.953407,2.41043 -5.020882,2.61276 -5.091291,0.49799 -16.963274,-0.13763 -29.436963,-13.15424 C 42.531567,98.606074 40.296654,88.008406 40.013917,82.786788 c -0.143001,-2.640331 1.046255,-4.874252 2.5585,-6.452319 l 4.417302,-4.610055 c 1.49891,-1.564151 3.421873,-2.321913 5.351094,-2.343009 z m 0.05581,4.433321 c -0.898809,0.01455 -1.77568,0.368447 -2.430343,1.051615 l -4.417301,4.610055 c -0.928534,0.968928 -1.375176,2.036427 -1.319816,3.058728 0.224675,4.148749 2.029093,13.711752 12.924792,25.081676 11.430552,11.92816 21.988062,12.2841 26.068693,11.88506 0.833632,-0.0815 1.663141,-0.53635 2.436544,-1.34359 l 3.997689,-4.17184 c 1.625047,-1.69601 1.266556,-4.78409 -1.035079,-6.0973 l -5.376933,-3.06751 c -1.484608,-0.84682 -3.223908,-0.56755 -4.304647,0.56017 l -1.282092,1.3379 -1.488281,-1.57096 c 1.488227,1.5712 1.486147,1.5731 1.484147,1.5751 -5e-4,0 -0.0027,0.003 -0.0041,0.004 l -0.0083,0.009 c -0.0059,0.006 -0.0121,0.0126 -0.0186,0.0186 -0.01266,0.0127 -0.02642,0.0261 -0.04134,0.0403 -0.02955,0.0283 -0.06301,0.0594 -0.101286,0.0925 -0.07627,0.0665 -0.17061,0.14146 -0.283187,0.22066 -0.225154,0.15832 -0.522831,0.33076 -0.896586,0.47697 -0.762427,0.29806 -1.767261,0.4579 -3.013769,0.25735 -2.43926,-0.39284 -5.671277,-2.13827 -9.968901,-6.62285 -4.296216,-4.483108 -5.973226,-7.859103 -6.351034,-10.41487 -0.193182,-1.306859 -0.03887,-2.362001 0.248564,-3.162598 0.140861,-0.392368 0.306542,-0.704541 0.458887,-0.940511 0.07599,-0.117705 0.14859,-0.216206 0.21239,-0.296106 0.03192,-0.03996 0.06172,-0.07502 0.08888,-0.105936 0.01356,-0.01547 0.02605,-0.03015 0.03824,-0.04341 0.0061,-0.0066 0.01239,-0.01302 0.01809,-0.01912 0.0028,-0.003 0.0055,-0.0059 0.0083,-0.0088 0.0014,-0.0014 0.0035,-0.0034 0.0041,-0.0041 0.002,-0.0021 0.0041,-0.0041 1.492415,1.566829 l -1.488281,-1.570963 0.807186,-0.842326 c 1.206262,-1.258773 1.374882,-3.348288 0.239262,-4.940267 L 55.546302,75.462687 C 54.74425,74.338318 53.552236,73.796022 52.396624,73.814726 Z" /></g></svg>
